<?xml version="1.0" standalone="no"?>
<!DOCTYPE svg PUBLIC "-//W3C//DTD SVG 1.1//EN" "http://www.w3.org/Graphics/SVG/1.1/DTD/svg11.dtd" >
<svg xmlns="http://www.w3.org/2000/svg">
<metadata></metadata>
<defs>
<font id="combatregular" horiz-adv-x="1218" >
<font-face units-per-em="2048" ascent="1638" descent="-410" />
<missing-glyph horiz-adv-x="512" />
<glyph horiz-adv-x="0" />
<glyph horiz-adv-x="682" />
<glyph unicode=" "  horiz-adv-x="512" />
<glyph unicode="&#x09;" horiz-adv-x="512" />
<glyph unicode="&#xa0;" horiz-adv-x="512" />
<glyph unicode="!" horiz-adv-x="468" d="M61 1434l43 -965h263l41 965h-347zM74 145q0 69 48 117.5t114 48.5q69 0 117 -48.5t48 -117.5q0 -66 -48 -113.5t-117 -47.5q-66 0 -114 47.5t-48 113.5z" />
<glyph unicode="#" horiz-adv-x="1648" d="M61 367h258l-135 -367h222l135 367h307l-133 -367h219l137 367h258l74 206h-258l106 289h258l78 207h-258l133 367h-219l-137 -367h-305l133 367h-219l-137 -367l-259 -2l-75 -205h260l-109 -291h-256zM616 571l107 291h309l-106 -289z" />
<glyph unicode="$" horiz-adv-x="1505" />
<glyph unicode="%" horiz-adv-x="1433" d="M61 1169q0 58 25 119q23 53 66 96q47 47 98 66q58 25 119 25q60 0 118 -25q53 -20 99 -66q41 -41 65 -96q25 -61 25 -119q0 -59 -25 -120q-24 -53 -65 -97q-44 -44 -99 -65q-58 -25 -118 -25q-61 0 -119 25q-53 20 -98 65q-43 46 -66 97q-25 61 -25 120zM63 0l1006 1430 h299l-1003 -1430h-302zM246 1169q0 -52 36 -88.5t87 -36.5t87 36.5t36 88.5q0 51 -36 87t-87 36t-87 -36t-36 -87zM758 262q0 60 24 119q23 53 66 96q47 47 98 66q56 24 119 24t119 -24q51 -19 98 -66q43 -43 66 -96q24 -58 24 -119q0 -62 -24 -121q-23 -49 -66 -96 q-45 -45 -98 -65q-58 -25 -119 -25t-119 25q-53 20 -98 65q-43 47 -66 96q-24 58 -24 121zM942 262q0 -52 36 -88.5t87 -36.5t87 36.5t36 88.5q0 51 -36 87t-87 36t-87 -36t-36 -87z" />
<glyph unicode="&#x26;" horiz-adv-x="1587" d="M61 383q3 -93 40 -167t91 -118t123.5 -73t131 -39.5t120.5 -10.5q89 0 150 9q83 10 141.5 40t120.5 87q63 -65 144 -100t157 -34t133 35q6 3 37 29q48 44 66 106.5t4 123t-54 104.5q-28 31 -59.5 49.5t-60 23t-52.5 2.5t-43 -10l-4 -20q11 -4 19 -12q5 -5 8 -11 q36 -48 -12 -96q-22 -22 -66.5 -13t-79.5 48l2 6q15 29 26 60t20 81t-3 109t-47 115l-158 -2q26 -35 36.5 -81.5t5.5 -84.5t-21 -56q-129 131 -254 260l49 21q75 27 129 71.5t78 88.5t37 84.5t14 65.5v26q-3 87 -34 153t-75 103.5t-103 61.5t-108 31.5t-100 8.5 q-78 0 -125 -8q-132 -20 -217.5 -100.5t-97.5 -186.5q-20 -198 133 -342l53 -51q-8 -3 -28 -12.5t-35 -16.5q-67 -32 -115 -80.5t-69.5 -95t-33.5 -88.5t-13 -68zM385 430q2 2 0 16t4 40.5t14.5 53t31 53.5t54.5 42l318 -334q-32 -36 -81.5 -55t-98.5 -21q-39 0 -66 2 q-77 9 -125.5 68.5t-50.5 134.5zM465 1126q7 22 8 23q15 33 46.5 56t74.5 24q49 1 84.5 -17t53 -49.5t24 -67.5t2.5 -75q-1 -8 -4 -22t-22 -47.5t-50 -57.5q-21 -17 -66 -37q-75 78 -112 125q-56 62 -39 145z" />
<glyph unicode="'" horiz-adv-x="438" d="M61 971q5 4 13 11t28 28.5t35.5 42.5t28 48.5t12.5 51.5q-62 17 -92.5 71t-13.5 117q15 62 71 94t119 15q43 -11 74 -44.5t37 -76.5v-1q3 -14 5 -31t-4.5 -63.5t-25 -90.5t-66.5 -103t-120 -110z" />
<glyph unicode="(" horiz-adv-x="798" d="M61 715q0 -110 21 -211t56.5 -178t82 -145.5t97.5 -118t101.5 -90.5t97 -67t82 -44t56.5 -25l21 -8l61 92q-80 49 -145 119.5t-105 145t-69.5 153.5t-43 148t-21 124t-8.5 87l-1 32v8q0 12 0.5 33t7 84.5t19 125t41.5 145t69 154.5t106.5 142.5t149.5 120.5l-61 96 q-8 -3 -21.5 -8t-55.5 -25t-83 -44.5t-96 -67t-103 -91t-96.5 -117.5t-82.5 -146t-55.5 -178t-21.5 -211v-35z" />
<glyph unicode=")" horiz-adv-x="798" d="M61 -78q80 49 145 119.5t105 145t69.5 153t43.5 147t21.5 123.5t8.5 87l1 32v8v33t-7 84.5t-19.5 125.5t-41.5 145.5t-69 155t-107 144t-150 121.5l64 92q13 -4 35 -13t85.5 -43.5t121.5 -77t128.5 -117.5t121 -161t85.5 -211t35 -265v-33q0 -140 -34 -264.5t-87.5 -212 t-119 -160.5t-131 -118.5t-119 -77t-87.5 -44.5l-34 -12z" />
<glyph unicode="*" horiz-adv-x="817" d="M61 1171q0 -39 20 -65.5t60 -32.5l170 -14l-129 -107q-28 -24 -28 -69q0 -40 29.5 -70.5t70.5 -30.5q69 0 90 60l64 147l61 -155q13 -27 38 -41.5t52 -14.5q42 0 71 32t29 71q0 37 -32 69l-125 107l164 12q39 3 64.5 33t25.5 65q0 42 -32 71.5t-71 29.5q-25 0 -49 -15 l-137 -82l45 164q10 49 -19.5 81t-80.5 32q-53 0 -84 -32t-21 -81l41 -164l-139 89q-22 14 -43 14q-44 0 -74.5 -28.5t-30.5 -74.5z" />
<glyph unicode="+" horiz-adv-x="1130" d="M61 406h1008v247h-1008v-247zM426 0h248v1024h-248v-1024z" />
<glyph unicode="," horiz-adv-x="440" d="M61 -186q5 4 13 11.5t28 29t35.5 43t28.5 50t13 52.5q-63 19 -94 74t-14 119q15 63 72.5 96t121.5 14q44 -11 75.5 -45t37.5 -78v-1q3 -14 5 -31t-4 -64.5t-25 -92.5t-68 -105.5t-123 -112.5z" />
<glyph unicode="-" horiz-adv-x="708" d="M53 440h598v248h-598v-248z" />
<glyph unicode="." horiz-adv-x="450" d="M61 145q0 69 48 117.5t114 48.5q69 0 117.5 -48.5t48.5 -117.5q0 -66 -48.5 -113.5t-117.5 -47.5q-66 0 -114 47.5t-48 113.5z" />
<glyph unicode="/" horiz-adv-x="1058" d="M61 -98l658 1532h278l-655 -1532h-281z" />
<glyph unicode="0" horiz-adv-x="1308" d="M61 719q0 -152 38 -285t110.5 -236t188 -163t259.5 -60q116 0 213.5 39t166 108t116.5 163t71 203.5t23 230.5t-23 230t-71 202t-116.5 160.5t-166 106t-213.5 38.5t-214 -38.5t-167.5 -106t-118.5 -160.5t-72.5 -202t-23.5 -230zM385 719q0 78 7 142t26 125t48.5 102.5 t78 66.5t112.5 25q79 0 133.5 -36.5t82.5 -104t39.5 -144t11.5 -176.5q0 -79 -6.5 -143t-24.5 -126.5t-47 -105t-77 -68.5t-112 -26q-272 0 -272 469z" />
<glyph unicode="1" horiz-adv-x="1185" d="M61 0h1063l-243 289h-140v1147h-258q0 -45 -15.5 -91.5t-47 -90t-78 -74.5t-108 -43.5t-138.5 2.5l60 -295q94 0 169.5 33t112.5 98v-686h-131z" />
<glyph unicode="2" horiz-adv-x="1251" d="M21 0h1169l-237 291h-504q-9 41 6 79.5t43.5 65t58.5 47t52 29.5l22 10q101 46 180.5 100.5t126 104t79 99t45 89t18.5 71t5 48.5l-1 17q-2 94 -39.5 167.5t-91.5 116t-125 70t-131.5 37t-120.5 10.5q-89 0 -149 -8q-160 -24 -257.5 -104.5t-115.5 -194.5q-4 -16 -4 -47 q3 -102 69 -164.5t162 -59.5q86 3 137.5 35.5t63.5 75.5l-12 16q-9 -6 -25 -6h-14q-66 6 -66 74q0 52 43 92t115 43q53 0 67 -2q75 -10 114.5 -67t37.5 -136q0 -7 -1.5 -19t-16.5 -48t-42 -70.5t-86 -81t-139 -84.5q-99 -48 -174 -102.5t-122 -113.5t-77 -115.5t-43.5 -123 t-17.5 -120t-2 -121.5z" />
<glyph unicode="3" horiz-adv-x="1175" d="M61 307q0 -10 5 -45q23 -115 127.5 -189t269.5 -91q90 -8 151 -5q60 2 121.5 14t131.5 42t123 75t88.5 120t35.5 169q0 7 -0.5 18.5t-7 46t-17 66.5t-34 73t-55.5 73t-83.5 59t-115.5 37q59 9 106.5 29t76 45t49 53.5t29 55t13 48.5t4.5 35v13q0 94 -33 167.5t-82 116 t-115 70.5t-122.5 38.5t-114.5 12.5q-68 3 -143 -4q-153 -17 -254.5 -96.5t-122.5 -184.5q-4 -28 -4 -45q0 -98 64.5 -152t158.5 -54q83 0 133.5 30t65.5 74l-12 14q-12 -4 -23 -4h-14q-64 6 -64 74q0 40 43.5 71t114.5 31q38 0 61 -4q73 -10 111 -67t35 -133q0 -7 -2 -17.5 t-12 -38t-26.5 -48.5t-50.5 -38.5t-79 -17.5h-135v-180h106q41 0 75 -12t55 -32t37 -43.5t23.5 -47t12 -43.5t5.5 -32l1 -12q5 -77 -38.5 -140t-119.5 -75q-25 -6 -65 -6q-75 0 -121.5 42.5t-46.5 94.5q0 68 65 74h17q12 0 24 -4l13 14q-15 43 -68 73t-139 30 q-95 0 -163.5 -68.5t-68.5 -169.5z" />
<glyph unicode="4" horiz-adv-x="1363" d="M61 479h557v-184h-133l-243 -295h1061l-246 295h-131v184h131l241 244h-372v715h-308l-557 -715v-244zM293 723l325 416v-416h-325z" />
<glyph unicode="5" horiz-adv-x="1155" d="M61 297q0 -24 6 -45q45 -231 377 -268q43 -4 152 -4q59 1 123.5 17.5t132.5 54t121 91t87.5 137.5t34.5 185q0 5 0.5 13.5t-1 35t-5.5 53t-14 63.5t-25 70t-40 69.5t-57.5 65.5t-80 54t-104.5 39q-133 29 -236 4t-149 -88v299h436l276 291h-966v-781h65h191 q12 29 33.5 50t43.5 31t42 16t33 7l13 1q64 0 109.5 -31t64.5 -75t28.5 -87.5t9.5 -74.5l-1 -31q0 -91 -40.5 -155t-118.5 -75q-25 -4 -66 -4q-74 0 -121 42t-47 93q0 68 66 74q6 2 16 2q5 0 23 -6l14 16q-15 43 -67.5 73t-139.5 30q-93 0 -156 -74t-63 -178z" />
<glyph unicode="6" horiz-adv-x="1204" d="M62.5 759.5q-4.5 -76.5 6.5 -188.5t42 -219q43 -144 140 -239t241 -121q72 -10 153 -10q58 0 118 11.5t124.5 41t116 72.5t89 112.5t46.5 155.5q1 7 2.5 20t1.5 52t-5 76t-21.5 85.5t-43 88.5t-75 77.5t-111.5 59.5q-89 30 -176.5 33t-153 -17t-112 -45t-72.5 -53 q4 94 22.5 171t45.5 127.5t61.5 86.5t68 53.5t68.5 23.5q67 10 122 -17t62 -91q6 -65 -53 -84q-8 -4 -14 -4q-14 -3 -23 0l-8 -19q15 -24 42.5 -40.5t71 -22.5t99.5 10q87 24 132.5 102.5t21.5 174.5q-14 53 -63 103t-118 79q-74 32 -133.5 42.5t-134.5 8.5q-62 0 -117 -10 t-115.5 -38t-111.5 -73t-100.5 -119.5t-87.5 -173.5q-5 -13 -11.5 -35.5t-19.5 -96.5t-17.5 -150.5zM377 580q31 34 69 56.5t69.5 30.5t59 11t43.5 2l15 -2q57 -3 98 -30t58.5 -62.5t27 -70.5t9.5 -59l1 -24q0 -39 -12.5 -75t-38.5 -68.5t-73.5 -49.5t-110.5 -12 q-103 7 -160.5 102.5t-54.5 250.5z" />
<glyph unicode="7" horiz-adv-x="1280" d="M20 1434l250 -293h521l-355 -848h-119l-243 -293h1050l-237 293h-139l471 1141h-1199z" />
<glyph unicode="8" horiz-adv-x="1208" d="M59.5 379q-0.5 -10 2 -40.5t9 -60t24.5 -69t43.5 -73.5t70.5 -67.5t102 -56t141 -35t185 -8.5q9 1 27.5 2t27.5 2q60 3 120 19.5t119.5 49.5t105 79.5t76 116t34.5 151.5q0 4 0.5 11.5t-1 31.5t-6.5 47.5t-17 57t-30 63.5t-49 63t-71 60q-25 19 -94 49q39 2 80.5 25.5 t76 62.5t56 96t18.5 119q-3 84 -34 151t-77.5 106.5t-102 68t-110.5 40.5t-100.5 18t-73.5 5h-28q-9 -1 -28 -2t-28 -2q-61 -4 -117 -17.5t-113 -42.5t-100.5 -71t-74 -108.5t-37.5 -149.5q-1 -6 -2 -16.5t1 -42.5t8.5 -62.5t25 -70.5t46.5 -73.5t77 -65t112 -50.5 q-32 -1 -69 -13.5t-75.5 -37.5t-70 -59t-53.5 -82t-25 -103q-1 -6 -1.5 -16zM358 399q-4 95 46 150.5t145 95.5q73 -8 127.5 -33.5t80 -57t40 -61.5t16.5 -51l2 -20q2 -37 -7 -70t-32.5 -64.5t-71 -51.5t-114.5 -23q-1 2 -12.5 0t-32 2.5t-44.5 9t-48.5 18.5t-45 33t-34 51 t-15.5 72zM377 1032q-3 78 48.5 136.5t160.5 64.5q5 0 12.5 0.5t31 -1.5t45 -7t48.5 -17t47.5 -30.5t37 -49.5t21.5 -71q9 -68 -24 -133t-94 -101q-28 3 -74 6q-76 6 -130.5 29t-78.5 51.5t-37 56.5t-13 47z" />
<glyph unicode="9" d="M63 974q1 -39 7 -76t23.5 -85.5t45 -88.5t77 -77t114.5 -57q90 -28 178 -28.5t153 20t111 47t72 55.5q-2 -94 -19.5 -171.5t-43.5 -129t-59.5 -88.5t-66.5 -55.5t-67 -24.5q-43 -7 -88.5 0t-83 35t-43.5 72q-9 64 53 86q2 0 6 1t6 1q14 5 23 0l10 18q-15 25 -44 41.5 t-73 21.5t-100 -12q-86 -27 -127 -106.5t-14 -177.5q14 -55 63.5 -101t106.5 -71q68 -30 136 -39t177 -9q365 0 518 424q4 13 10.5 36t18.5 97t15 151t-10.5 189.5t-47.5 219.5q-45 145 -146 239t-247 117q-60 8 -152 8q-58 -1 -118.5 -14.5t-125 -44.5t-115.5 -76t-87 -116 t-43 -158q-1 -7 -2.5 -20.5t-0.5 -52.5zM381 995q-1 39 11 76t37.5 70.5t73.5 52t111 14.5q102 -6 162 -101t60 -251q-31 -34 -68 -57.5t-68 -32t-58 -12t-42 -2.5l-16 2q-58 2 -100 27.5t-61 60.5t-29.5 70t-11.5 59z" />
<glyph unicode=":" horiz-adv-x="450" d="M61 145q0 69 48 117.5t114 48.5q69 0 117.5 -48.5t48.5 -117.5q0 -66 -48.5 -113.5t-117.5 -47.5q-66 0 -114 47.5t-48 113.5zM61 866q0 69 48 117.5t114 48.5q69 0 117.5 -48.5t48.5 -117.5q0 -66 -48.5 -113.5t-117.5 -47.5q-66 0 -114 47.5t-48 113.5z" />
<glyph unicode=";" horiz-adv-x="450" d="M61 -186q5 4 13 11.5t28.5 29t36 43t28.5 50t13 52.5q-63 19 -94 74t-14 119q15 63 72.5 96t121.5 14q44 -11 75.5 -45t37.5 -78v-1q3 -14 5 -31t-4 -64.5t-25 -92.5t-68 -105.5t-123 -112.5zM61 866q0 69 48 117.5t114 48.5q69 0 117.5 -48.5t48.5 -117.5 q0 -66 -48.5 -113.5t-117.5 -47.5q-66 0 -114 47.5t-48 113.5z" />
<glyph unicode="&#x3c;" horiz-adv-x="989" d="M61 512l865 512h2v-236l-455 -276l455 -268v-244h-2z" />
<glyph unicode="=" horiz-adv-x="1212" d="M61 154h1090v247h-1090v-247zM61 604h1090v248h-1090v-248z" />
<glyph unicode="&#x3e;" horiz-adv-x="989" d="M61 0h2l865 512l-865 512h-2v-236l455 -276l-455 -268v-244z" />
<glyph unicode="?" horiz-adv-x="1009" d="M20 1151q0 20 3 41q14 99 103.5 171.5t229.5 90.5q70 8 125 8q64 1 126.5 -9t125 -37t109.5 -67.5t76.5 -105.5t29.5 -147q0 -7 -0.5 -18t-7.5 -45.5t-18 -66.5t-36 -74.5t-58.5 -77t-88.5 -66.5t-123 -50l-30 -264h-250l-27 334q23 6 37 12q80 20 139.5 54t88 68.5 t45.5 66t19 51.5l3 20q9 87 -25 142.5t-110 68.5q-20 4 -57 4q-63 -3 -103 -41.5t-37 -80.5q3 -60 60 -60q18 0 30 4l13 -14q-10 -36 -53.5 -64t-116.5 -32q-82 -5 -150 47.5t-72 136.5zM295 145q0 69 48 117.5t114 48.5q69 0 117.5 -48.5t48.5 -117.5q0 -66 -48.5 -113.5 t-117.5 -47.5q-66 0 -114 47.5t-48 113.5z" />
<glyph unicode="@" horiz-adv-x="1974" d="M61 504q0 -150 47 -291t132.5 -255t199.5 -199.5t255.5 -132t291.5 -46.5q85 0 141 10v217q-63 -14 -141 -14q-144 0 -275.5 56.5t-227 152t-152 227t-56.5 275.5q0 145 56.5 277t152 227.5t227 152t275.5 56.5q145 0 277 -56.5t227.5 -152t152 -227.5t56.5 -277 q0 -130 -31 -207l-4.5 -9l-4.5 -9t-3 -5q-33 -49 -88.5 -60t-100.5 28.5t-45 122.5l2 262q2 78 -12.5 141t-39 105.5t-61 74.5t-73.5 50t-82 29t-80 14t-73 3q-53 4 -125 -4q-135 -13 -222 -74t-106 -149q-4 -24 -4 -39q0 -82 57 -127t139 -45q71 0 114.5 25t55.5 61l-10 13 q-15 -5 -20 -5q-9 0 -13 2q-53 3 -53 62q0 34 37.5 58t99.5 24q18 0 54 -4q124 -18 120 -189v-10q-248 -59 -355 -100q-265 -102 -280 -267q-1 -11 -1 -22q0 -68 32 -121.5t84.5 -85t114 -47.5t127.5 -16q60 0 112 14t83.5 34t55 40.5t33.5 34.5l9 14q38 -75 133 -110.5 t191.5 -33.5t172.5 27q35 11 62.5 25.5t62.5 42.5t64.5 76.5t50.5 113.5q2 4 2 8q0 1 1 3t1 3q29 119 29 228q0 189 -73.5 360.5t-197.5 295t-295.5 197t-359.5 73.5t-359.5 -73.5t-295.5 -197t-197.5 -295t-73.5 -360.5zM827 299q0 106 301 186v-133q-2 -5 -5 -14t-17 -32 t-31.5 -41t-48.5 -34t-68 -18q-59 -3 -95 21.5t-36 64.5z" />
<glyph unicode="A" horiz-adv-x="2125" d="M61 0h967l-154 289h-153l88 174h475l92 -174h-125l-143 -289h956l-239 289h-133l-430 844h122l234 297h-1110l242 -297h114l-434 -844h-121zM909 668l140 266l135 -266h-275z" />
<glyph unicode="B" horiz-adv-x="1769" d="M61 0h1053h28q82 0 152 10q82 12 139.5 32.5t103.5 49t74 60t48.5 63.5t29.5 61t14 51.5t5 36.5v13q0 245 -203 328q193 113 193 325q0 99 -47 178.5t-115 128.5q-39 29 -100 49.5t-120 29t-112 13.5t-86 5h-33h-1024l240 -295h135v-846h-135zM741 293v303h265h116h-116 h116q11 -1 27 -1.5t27 -1t16 -1.5q42 -4 68 -19q86 -35 86 -129q0 -43 -15.5 -74t-37.5 -45t-44 -22t-37 -9l-16 -1h-63h-392zM741 606h2h-2zM741 840v299h303q33 1 60 1q82 0 115 -5q53 -8 90 -48.5t37 -95.5q0 -60 -41 -104t-101 -45q-1 0 -18 -0.5t-40 -1t-38 -0.5h-367z " />
<glyph unicode="C" horiz-adv-x="1572" d="M61 743q0 -155 55 -294.5t154 -245t248 -168t326 -62.5q249 0 410 133.5t257 382.5l-272 115q-29 -73 -62 -129t-81.5 -106t-116 -76.5t-150.5 -26.5q-122 0 -221 67t-154 182t-55 253q0 177 120 296.5t312 119.5q131 0 243 -90t159 -234l18 -41l260 117q-24 60 -33 138 q-6 52 -6 99q0 23 2 45q4 66 12 124.5t16 91.5l9 34l-260 -174q-9 -15 -18 -39q-148 187 -424 203q-16 1 -31 1q-114 -1 -218 -33q-118 -36 -207.5 -104t-156 -159t-101 -199t-34.5 -221z" />
<glyph unicode="D" horiz-adv-x="1796" d="M61 4h1033q8 0 22.5 0.5t58 7.5t85.5 18.5t100 37.5t107 60.5t99.5 91.5t86 126.5t58 169.5t22.5 217q0 118 -24 217.5t-64.5 168t-93 123t-111 86.5t-116.5 55t-110 32q-54 9 -94 13q-33 4 -55 4h-9h-24h-971l242 -304h123v-821h-123zM729 307v821h242q13 1 32 1 q9 -1 20 -1q32 0 105 -11.5t115 -35.5q81 -46 132.5 -133t51.5 -215q0 -86 -21 -156.5t-56.5 -115.5t-71 -72.5t-74.5 -44.5q-44 -19 -117.5 -28.5t-124.5 -9.5l-51 1h-182z" />
<glyph unicode="E" horiz-adv-x="1705" d="M61 0h1328l249 293h-864v299h486v270h-486v273h615l256 292h-1584l258 -292h136v-842h-136z" />
<glyph unicode="F" horiz-adv-x="1642" d="M61 0h1057l-246 293h-133v303h408v270h-408v273h596l246 293h-1520l244 -293h131v-846h-131z" />
<glyph unicode="G" horiz-adv-x="1888" d="M61 737q0 -155 55 -293t154 -241t247 -163t325 -60q135 0 249 35.5t195 98.5t136.5 141.5t88.5 172.5h138l178 277h-971l160 -277h192q-51 -73 -156 -112q-85 -31 -168 -31q-19 0 -38 2q-189 12 -309.5 143.5t-120.5 337.5q0 173 129 292.5t311 119.5q144 0 253 -85.5 t153 -232.5l14 -43l262 119q-23 62 -32 140q-5 51 -5 97q0 24 1 47q5 67 12.5 124.5t15.5 90.5l8 33l-262 -165q0 -7 -3 -16t-3 -11q-171 167 -439 178q-18 1 -35 1q-146 0 -276 -53q-146 -58 -245 -159.5t-156.5 -234.5t-57.5 -273z" />
<glyph unicode="H" horiz-adv-x="2131" d="M61 0h963l-154 293h-120v305h632v-305h-120l-152 -293h961l-242 293h-141v844h141l242 293h-961l152 -293h120v-293h-632v293h120l154 293h-963l242 -293h141v-844h-141z" />
<glyph unicode="I" horiz-adv-x="1181" d="M61 0h1059l-243 293h-134v846h134l243 293h-1059l246 -293h131v-846h-131z" />
<glyph unicode="J" horiz-adv-x="1529" d="M61 430q18 -203 165 -330t384 -127q146 0 264.5 67.5t180.5 184.5q30 58 45.5 150t15.5 155v62v545h109l243 297h-1058l243 -297h154v-566q0 -108 -6 -151q-14 -81 -78 -123.5t-143 -42.5q-67 0 -131 38t-84 111l-7 27h-297z" />
<glyph unicode="K" horiz-adv-x="2230" d="M61 -4h1063l-247 297h-136v131l289 199l406 -330h-74l-152 -297h959l-248 297h-102l-570 483l525 369h120l244 289h-958l147 -289h107l-693 -447v447h136l247 289h-1063l244 -289h144v-852h-144z" />
<glyph unicode="L" horiz-adv-x="1595" d="M61 4h1231l242 289h-797v846h127l248 293h-1051l240 -293h129v-846h-129z" />
<glyph unicode="M" horiz-adv-x="2521" d="M61 0h938l-122 293h-132v719l429 -1012h206l404 1004v-711h-121l-121 -293h918l-244 293h-125v848h121l246 293h-1123l123 -293h109l-269 -641l-284 641h116l134 293h-1203l244 -293h137v-848h-137z" />
<glyph unicode="N" horiz-adv-x="1968" d="M20 1434l242 -293h137v-844h-123l-241 -293h956l-172 293h-131v690l547 -983h342v1137h129l242 293h-955l170 -293h123v-643l-524 936h-322h-420z" />
<glyph unicode="O" horiz-adv-x="1574" d="M20 719q0 -152 61 -290.5t164 -238.5t245.5 -159.5t297.5 -59.5q208 0 384.5 100.5t279 272.5t102.5 375q0 152 -60.5 289.5t-163 237t-244.5 158t-298 58.5q-208 0 -384.5 -99t-280 -270.5t-103.5 -373.5zM367 719q0 186 123.5 319t297.5 133q176 0 300 -132.5 t124 -319.5q0 -191 -123.5 -324t-300.5 -133q-175 0 -298 133.5t-123 323.5z" />
<glyph unicode="P" horiz-adv-x="1761" d="M61 2h1055l-242 291h-131v278h482q228 0 351.5 115.5t123.5 341.5q0 98 -47 176.5t-115 130.5q-39 29 -99.5 49t-119 28.5t-111.5 13t-86 4.5h-32h-1029l246 -293h131v-844h-131zM743 840v297h301q132 0 177 -4q54 -9 90.5 -49.5t36.5 -94.5q0 -60 -42 -104t-102 -45h-96 h-365z" />
<glyph unicode="Q" horiz-adv-x="1638" d="M55 719q0 -203 102 -374.5t278 -271.5t384 -100q249 0 455 148l309 -225v346l-113 80q113 189 113 397q0 150 -60 286.5t-162.5 235.5t-244 158t-297.5 59t-297.5 -59t-244 -158t-162.5 -235.5t-60 -286.5zM395 719q0 184 125.5 317t298.5 133q172 0 298 -133t126 -317 q0 -105 -45 -207l-133 92l-336 -86l281 -205q-91 -51 -191 -51q-174 0 -299 133.5t-125 323.5z" />
<glyph unicode="R" horiz-adv-x="2144" d="M61 -4h936l-151 295h-98v311h399h8l197 -311h-115l-152 -295h998l-244 295h-133l-238 375q238 113 238 364q0 100 -46.5 179.5t-115.5 127.5q-39 29 -99.5 49t-119.5 28.5t-112 13t-86 4.5h-33h-1031l246 -295h131v-846h-135zM748 840v297h303q32 1 59 1q81 0 115 -5 q55 -8 92 -48t37 -96q0 -60 -41.5 -104t-102.5 -45h-94h-368z" />
<glyph unicode="S" horiz-adv-x="1617" d="M61 31l254 139q5 4 10.5 18.5t10.5 18.5q240 -236 620 -236q109 0 200 17.5t149.5 45.5t103.5 61.5t68.5 67t38 61.5t18.5 46l4 17q4 9 6 24q2 12 2 47v14q0 46 -12.5 91t-50 104.5t-96.5 110t-165 100.5t-245 82q-173 43 -281.5 78.5t-159 66.5t-64.5 56t-7 57 q9 39 73 65.5t156 29.5h26q80 1 164 -15q98 -18 187 -76t133 -145q4 -8 6.5 -17.5t3.5 -14.5v-5l248 117q-22 61 -30 129q-6 44 -6 83q0 20 2 38q4 53 11 98t15 69l8 25l-248 -137q-5 -15 -15 -44t-15 -44q-207 186 -520 186q-90 0 -168.5 -10.5t-134 -28.5t-101.5 -41 t-75.5 -48.5t-52 -50.5t-34 -48t-18.5 -41t-8 -28l-2 -11q-1 -4 -1.5 -12t0.5 -32.5t6 -49.5t19.5 -60.5t36.5 -68.5q4 -7 13 -19t43.5 -45.5t76.5 -64t115 -67.5t156 -62q114 -39 224 -71.5t173 -52.5t119 -46q47 -24 73 -58q22 -27 22 -56q0 -6 -1 -13q-11 -40 -53 -67 q-41 -28 -103 -36q-38 -5 -80 -5q-27 1 -56 3q-74 6 -153 34t-151 70.5t-134.5 112.5t-99.5 156l-254 -121q22 -58 30 -130q5 -48 5 -91q0 -22 -1 -42q-4 -61 -11.5 -114t-15.5 -83z" />
<glyph unicode="T" horiz-adv-x="1882" d="M61 1434l267 -293h467v-846h-148l-231 -295h1054l-235 295h-148v846h500l234 293h-1760z" />
<glyph unicode="U" horiz-adv-x="2103" d="M61 1434l244 -295h137v-586q0 -15 1.5 -41.5t17.5 -98.5t45 -134q152 -293 541 -293q102 0 187.5 19.5t145 52t107 75t76 90t49.5 94.5t29.5 89.5t13 75t4.5 52.5v19v586h139l244 295h-950l153 -295h107v-432q1 -7 1.5 -19t-0.5 -48t-5 -70t-16.5 -77t-31.5 -77 q-34 -63 -98.5 -100t-154.5 -37q-92 0 -172.5 48t-98.5 117q-14 38 -20 96q-5 49 -4 85v12l2 39v463h104l154 295h-951z" />
<glyph unicode="V" horiz-adv-x="2048" d="M61 1438l213 -295h129l471 -1139h17h266h14l474 1139h129l213 295h-924l151 -295h105l-297 -787l-295 787h102l154 295h-922z" />
<glyph unicode="W" horiz-adv-x="2969" d="M61 1432l185 -297h133l471 -1139h307l328 883l327 -883h308l471 1143h133l184 293h-926l152 -293h129l-293 -789l-299 785h109l153 297h-895l150 -297h110l-297 -785l-299 785h132l153 297h-926z" />
<glyph unicode="X" horiz-adv-x="2086" d="M61 4h959l-152 293h-94l264 252l262 -252h-77l-152 -293h954l-215 293h-141l-450 420l444 426h147l215 295h-956l152 -295h90l-273 -256l-274 256h102l152 295h-957l218 -295h133l446 -426l-450 -420h-129z" />
<glyph unicode="Y" horiz-adv-x="2078" d="M61 1434l244 -293h135l451 -535v-313h-131l-246 -293h1061l-246 293h-133v311l416 537h164l241 293h-936l121 -293h127l-268 -332l-291 332h107l122 293h-938z" />
<glyph unicode="Z" horiz-adv-x="1642" d="M61 4h1520l-244 293h-682l904 1130h-1457l246 -292h625z" />
<glyph unicode="[" horiz-adv-x="858" d="M61 -252h736l-250 252h-213v1434h213l250 254h-736v-1940z" />
<glyph unicode="\" horiz-adv-x="1042" d="M61 1434h279l641 -1532h-281z" />
<glyph unicode="]" horiz-adv-x="858" d="M61 -254h736v1940h-736l250 -252h213v-1434h-213z" />
<glyph unicode="^" horiz-adv-x="1138" d="M61 592v2l508 858l508 -858v-2h-233l-275 450l-266 -450h-242z" />
<glyph unicode="_" horiz-adv-x="1431" d="M61 -371h1309l-166 248h-977z" />
<glyph unicode="`" horiz-adv-x="614" d="M61 1427l21 35h299l172 -286h-250z" />
<glyph unicode="a" d="M62 240q0 -71 33 -126t88 -87t119 -48t133 -16q61 0 114 14.5t86 35.5t57 41.5t34 35.5l10 14q54 -98 160 -128q35 -10 72 -10q74 0 153 40q48 27 75 64q26 38 30 75l2 28q0 21 -4 39q-6 30 -17 56q-6 11 -10 19l-16 18l-19 -2q-4 -29 -20 -37q-13 -19 -41 -22t-52 20 t-24 70l6 295v18q1 71 -13 129q-16 66 -41.5 109t-63.5 76t-76 51.5t-84.5 29.5t-83 14t-76.5 3q-67 0 -129 -8q-143 -19 -232 -78t-108 -148q-4 -20 -4 -39q0 -85 58.5 -131.5t143.5 -46.5q75 0 120 25.5t57 62.5l-13 15q-12 -6 -20 -6h-10q-58 9 -58 63q0 40 41.5 82.5 t100.5 42.5q37 0 49 -2q133 -19 133 -246v-8q-247 -56 -348 -92q-272 -96 -307 -254q-5 -25 -5 -51zM417 287q0 63 94 123t209 92v-162q-1 -7 -3 -17.5t-13.5 -38.5t-28 -50t-49.5 -41t-76 -21h-9q-51 0 -86 33q-38 36 -38 82z" />
<glyph unicode="b" horiz-adv-x="1296" d="M-102 1434l217 -291h59v-1168l221 170q105 -170 363 -170q78 0 143.5 17.5t111.5 47t83 67.5t59.5 80t39 84t24 80t11.5 67.5t4 47.5l1 17q0 125 -34 231t-99.5 184t-173.5 112q-64 20 -138 20q-52 0 -108 -10q-71 -12 -135 -60t-90 -114v588h-559zM457 436v47 q2 61 14 114.5t37.5 102t72.5 77t111 28.5q71 0 121 -34.5t72 -84t33.5 -99t11.5 -83.5v-35v-17.5t-4 -43t-11.5 -61t-24.5 -65t-41.5 -61t-64.5 -43.5t-90 -18q-57 0 -101.5 23t-68.5 54.5t-40 73.5t-20.5 70t-6.5 55z" />
<glyph unicode="c" horiz-adv-x="1085" d="M61 514q0 -160 81 -286t212.5 -192.5t286.5 -66.5q123 0 233.5 48.5t186.5 132.5l-184 225q-30 -86 -90.5 -145.5t-145.5 -59.5q-122 0 -190 98.5t-68 245.5q0 93 28.5 170t88 125.5t141.5 48.5q88 0 148 -61t88 -150l188 232q-79 84 -190 131t-234 47q-115 0 -221 -40.5 t-185 -111.5t-126.5 -173t-47.5 -218z" />
<glyph unicode="d" horiz-adv-x="1411" d="M61 487q0 -7 0.5 -18t5.5 -46t12.5 -69t25 -80t40 -85.5t59.5 -80t82.5 -69t110 -46.5t140.5 -18q219 0 297 193v-168h278h279l-211 299h-68v471v660h-278h-277l211 -281h66v-295q-17 64 -77.5 115t-133.5 65q-61 12 -115 12q-48 0 -90 -9q-90 -20 -157.5 -70 t-111.5 -126t-66 -165.5t-22 -188.5zM362 487q0 7 0.5 19.5t5 48t12.5 68t26 72.5t42 68.5t63 48t87 19.5q61 0 108 -28.5t74 -75.5t40.5 -102t13.5 -115v-41q0 -21 -3 -44t-10.5 -56t-24.5 -62t-41.5 -55t-65 -41.5t-91.5 -15.5q-66 0 -114.5 30t-71 73t-35 86t-13.5 73z " />
<glyph unicode="e" horiz-adv-x="1183" d="M61 514q0 -148 77 -274t208 -199.5t283 -73.5q303 0 465 180l-179 215q-32 -83 -104.5 -142.5t-165.5 -59.5q-108 0 -183.5 85.5t-84.5 200.5h756v68q0 151 -64.5 275.5t-185 198t-273.5 73.5t-279 -73t-198 -198.5t-72 -275.5zM385 631q19 99 75 165t148 66 q82 0 133 -66t70 -165h-426z" />
<glyph unicode="f" horiz-adv-x="897" d="M20 0h816l-215 281h-54v538h107l143 182h-254q-1 17 -1 32q0 46 9 77q11 47 53 66q28 13 55 13q14 0 28 -3q41 -10 53 -37l137 235q-13 8 -36 19t-89 29q-58 16 -113 16h-12h-8q-51 -5 -96 -18t-92 -42t-81 -70.5t-56 -108.5t-23 -152q-4 -19 -4 -56h-99l-147 -182h246 v-538h-54z" />
<glyph unicode="g" horiz-adv-x="1413" d="M61 -162q0 -62 59 -116t152 -88t202 -53.5t214 -20.5q83 0 168 10t180 37.5t167.5 69.5t120.5 113.5t48 162.5q0 117 -57.5 187t-153 92t-219.5 29q-51 3 -104 3q-75 0 -154 -6q-21 -1 -40 -1q-172 0 -238 48q-28 20 -28 43q0 24 30 51q8 8 18 15q128 -41 264 -41 q152 0 281 46t203.5 124.5t74.5 171.5q0 129 -137 225q-6 5 -17.5 11.5t-15.5 9.5l-28 14q3 26 26 43q20 18 47.5 18t49 -13t32.5 -37t2 -48q-6 -16 -14 -25l4 -10h16l15 4q45 11 87.5 48.5t41.5 101.5q-3 52 -33 89.5t-73 53.5q-30 10 -65 10q-15 0 -30 -2q-52 -6 -96 -37 q-38 -29 -57 -75q-17 -43 -17 -83v-9q-138 53 -297 53q-151 0 -279.5 -46t-203 -125t-74.5 -171q0 -68 41 -130t115 -108q-187 -92 -187 -241q0 -117 138 -181q-71 -37 -125 -91.5t-54 -125.5zM403 -131q-14 18 -14 39q0 41 55 96q94 -10 232 -10q34 0 79 1.5t72.5 2.5 t60 0.5t51.5 -5t36.5 -13t25 -24t7.5 -38.5q0 -48 -86 -90q-74 -38 -192 -38q-17 0 -34 1q-238 9 -293 78zM469 715q0 73 61.5 125.5t159.5 52.5q96 0 158.5 -52.5t62.5 -125.5q0 -68 -63.5 -123t-157.5 -55q-97 0 -159 54.5t-62 123.5z" />
<glyph unicode="h" horiz-adv-x="1605" d="M20 4h764l-157 285h-49v180q2 61 12.5 115t34.5 107.5t70.5 85.5t111.5 32q51 0 92 -18t65 -47.5t41 -64.5t24 -70t10.5 -64.5t2.5 -47.5v-18v-190h-53l-158 -285h764l-215 285h-49v203q0 96 -18.5 181t-60 157.5t-102 121t-150.5 68.5q-48 10 -103 10q-47 0 -98 -8 q-70 -11 -135 -62t-86 -116v588h-558l216 -295h59v-848h-59z" />
<glyph unicode="i" horiz-adv-x="892" d="M20 0h832l-219 285h-66v741h-547l240 -307h45v-434h-45zM240 1266q0 -73 54.5 -126t129.5 -53q76 0 130 52.5t54 126.5q0 72 -54 124t-130 52q-75 0 -129.5 -52t-54.5 -124z" />
<glyph unicode="j" horiz-adv-x="737" d="M-31 -332q12 -10 33.5 -24.5t85.5 -42t125 -33.5h4q18 -1 36 -1q33 0 63 3q47 6 98 27.5t91 58t72.5 100t47.5 148.5q14 96 14 196v928h-553l215 -289h53v-555q0 -229 -16 -290q-17 -46 -62 -59q-21 -6 -41 -6q-23 0 -45 9q-41 15 -49 41zM311 1266q0 -71 53 -121.5 t128 -50.5q76 0 130 50.5t54 121.5q0 73 -53.5 124.5t-130.5 51.5q-75 0 -128 -51.5t-53 -124.5z" />
<glyph unicode="k" horiz-adv-x="1650" d="M20 4h773h-2h2l-162 287h-49v39l282 184l195 -223h-49l-162 -287h772l-217 287h-39l-307 350l233 152h70l176 231h-752l125 -231h76l-410 -256v903h-555l218 -289h55v-860h-55z" />
<glyph unicode="l" horiz-adv-x="868" d="M20 0h828l-217 285h-56v1149h-555l216 -287h57v-862h-57z" />
<glyph unicode="m" horiz-adv-x="2400" d="M20 2h777l-158 291h-55v182q3 48 10 91.5t24 91.5t42 82.5t66 57.5t93 23t93 -18.5t65.5 -48t42 -65.5t25 -72t11 -65.5t3.5 -47.5v-19v-192h-53l-168 -291h727l-162 291h-55v188q3 48 10.5 91t24.5 90t41.5 81t65 56t91.5 22q52 0 93 -18.5t65.5 -48t41.5 -65.5t24 -72 t11 -65.5t4 -47.5l-1 -19v-192h-54l-161 -291h776l-215 291h-54v205q0 98 -18.5 183t-60 157.5t-102.5 121.5q-60 48 -152 69q-55 13 -118 13q-42 0 -87 -6q-179 -25 -289 -184q-62 109 -184 160q-79 33 -181 33q-53 0 -112 -9q-71 -13 -136.5 -64t-86.5 -118v174h-564 l220 -293h57v-442h-57z" />
<glyph unicode="n" horiz-adv-x="1632" d="M20 2h775l-162 289h-51v180q2 48 8.5 91.5t23 91t41.5 82t66 57t94 22.5q52 0 93 -18.5t65.5 -47.5t41.5 -64.5t24 -71t11 -64.5t4 -47l-1 -19v-192h-54l-161 -289h774l-219 289h-52v203q0 98 -18.5 183.5t-59.5 159t-102 122.5t-152 69q-48 11 -101 11q-48 0 -101 -9 q-73 -11 -138.5 -62t-86.5 -120v176h-562l218 -295h59v-438h-59z" />
<glyph unicode="o" horiz-adv-x="1249" d="M61 514q0 -148 76 -273.5t206 -198.5t282 -73t281.5 73t205.5 198.5t76 273.5q0 147 -76 272t-205.5 198t-281.5 73t-282 -73t-206 -198t-76 -272zM375 514q0 146 64.5 244t185.5 98q83 0 141 -48.5t84.5 -124t26.5 -169.5q0 -95 -26.5 -171t-84.5 -124.5t-141 -48.5 q-121 0 -185.5 98.5t-64.5 245.5z" />
<glyph unicode="p" horiz-adv-x="1404" d="M20 -403h822l-217 276h-52v297q23 -65 81.5 -110.5t129.5 -57.5q59 -11 112 -11q47 0 90 9q90 19 157 67t111.5 121t66.5 161.5t22 187.5q0 6 -0.5 17.5t-4.5 45.5t-11 67t-23.5 78.5t-39 84t-59 78t-82 67.5t-111 45.5t-142.5 17.5q-102 0 -184.5 -50.5t-112.5 -125.5 v162h-282h-271l213 -287h58v-864h-55zM573 514v47q2 26 6 53t19.5 69.5t39 73.5t66.5 55q42 22 96 22h5q69 -1 118.5 -33t71 -77.5t33 -91t12.5 -76.5v-32q-2 -1 0 -18q1 -5 1 -11q0 -14 -4 -35q-5 -30 -11 -64.5t-24.5 -70t-42 -64t-65 -46.5t-93.5 -18q-49 0 -88.5 19 t-64.5 49.5t-42 72.5t-24.5 85t-8.5 91z" />
<glyph unicode="q" horiz-adv-x="1331" d="M61 537q0 -100 21 -188t64 -161.5t108.5 -121.5t154.5 -67q43 -9 93 -9q52 0 110 10q72 14 136 61t88 111v-301h-54l-219 -281h830l-217 281h-54v1176l-221 -173q-107 173 -364 173q-78 0 -143.5 -17.5t-111.5 -47t-83 -67.5t-59.5 -80.5t-39 -85t-23.5 -80.5t-11 -67.5 t-4 -47.5zM364 526l1 19v17.5t4 43.5t11 61t24.5 65t42 62t64.5 44t91 18q57 0 101 -23t67.5 -54.5t39 -73.5t20 -69.5t6.5 -53.5v-50q-2 -61 -14 -114t-37 -101t-71 -76t-108 -28q-52 0 -93.5 18.5t-66.5 47.5t-42.5 64.5t-24.5 71t-11 64.5t-4 47z" />
<glyph unicode="r" horiz-adv-x="1134" d="M21 0h837l-219 289h-55v303q0 41 1.5 70t9.5 66.5t22.5 61.5t42 42t65.5 20h6q33 0 62 -20q31 -22 44 -54q8 -20 8 -42q0 -12 -2 -24q-7 -36 -38 -57q-17 -12 -37 -14l-4 -16q11 -11 21 -17l18 -10q25 -10 55 -15q19 -3 41 -3q13 0 27 1q38 3 77.5 26.5t67.5 66.5 q42 64 42 132.5t-34.5 121.5t-99 87.5t-143.5 35.5h-4q-86 1 -156 -47q-72 -48 -92 -119v143h-563l219 -291h57v-448h-57z" />
<glyph unicode="s" horiz-adv-x="1200" d="M61 0l176 98q2 4 5.5 16.5t5.5 16.5q151 -151 454 -151q77 0 142 13.5t107.5 35t76 47.5t51.5 52.5t30 48t15 35.5l4 13q2 6 5 17t5 44v13q0 26 -5 52q-6 32 -30 75t-64 79.5t-113.5 72.5t-172.5 59q-65 16 -111 27.5t-85 22.5t-63 19.5t-44 17t-27.5 16t-14 16.5 t-4 17.5t2.5 19.5q9 29 71 43q50 12 108 11q14 -1 28 -1q76 -4 150.5 -40.5t105.5 -100.5l12 -31l191 82q-24 68 -24 148t12 126l12 45l-174 -98q-14 -32 -21 -68q-142 138 -378 138q-80 0 -145.5 -13t-107 -33.5t-73.5 -45t-47.5 -49t-25 -45t-11.5 -33.5l-2 -13 q-1 -5 -3 -14t-1 -37t8 -55.5t29.5 -64.5t57.5 -69.5t98 -66.5t145 -59q66 -20 128.5 -37t91 -24.5t60.5 -18.5t64 -25q51 -23 51 -59q0 -10 -4 -21q-8 -24 -53 -42q-46 -18 -114 -20q-6 0 -11 -1q-63 0 -130 16q-73 17 -144 72t-113 141l-187 -78q24 -68 24 -156t-12 -142z " />
<glyph unicode="t" horiz-adv-x="819" d="M0 834h190v-416q0 -121 11.5 -199t44 -137t91.5 -85t152 -26q57 0 106.5 22.5t80.5 56.5t48.5 69.5t18.5 64.5l-20 9q-16 -21 -44 -35t-60 -13t-61 18.5t-48 67.5q-18 48 -18 118v7v478h161l146 190h-307v426z" />
<glyph unicode="u" horiz-adv-x="1597" d="M20 1024l220 -287h51v-207q0 -99 17 -183.5t56 -158.5t98 -123q60 -49 150 -71q53 -13 114 -12q43 0 89 6q69 9 128 66t71 122v-176h563l-219 293h-58v731h-552l215 -287h51v-182q0 -346 -207 -346q-51 0 -90.5 18.5t-62.5 48t-39.5 65t-22.5 71t-8.5 65t-1.5 47.5v19 v481h-562z" />
<glyph unicode="v" horiz-adv-x="1630" d="M20 1024l220 -289h57l262 -534l-151 -205h249h310h278l-170 223l254 516h64l217 289h-754l162 -289h51l-240 -516l-239 516h49l162 289h-781z" />
<glyph unicode="w" horiz-adv-x="2406" d="M20 1024l220 -287h59l256 -528l-160 -211h262h308h209l-117 211l139 334l143 -344l-114 -201h202h314h264l-160 211l260 528h62l219 287h-756l164 -287h49l-241 -518l-238 516h51l164 289h-723h-2h2l162 -289h49l-236 -516l-241 518h47l164 287h-781z" />
<glyph unicode="x" horiz-adv-x="1536" d="M20 -2h723l-139 248l150 153l168 -170l-129 -231h723l-220 289h-77l-287 229l280 219h84l220 289h-723l139 -248l-156 -158l-166 170l133 236h-723l218 -289h67l293 -233l-274 -215h-86z" />
<glyph unicode="y" horiz-adv-x="1581" d="M20 1024l216 -283h47l350 -714q0 -101 -39 -164q-45 -81 -108 -81q-21 0 -44 9q-26 8 -43 36t-10 58q8 38 39 55q18 9 40 9q18 0 40 -6l10 14q-2 9 -8.5 20t-11.5 18l-6 7q-16 20 -43.5 37t-64.5 29q-26 8 -55 8q-15 0 -31 -2q-48 -6 -93 -33q-17 -11 -34.5 -29 t-26.5 -30l-9 -13q-32 -55 -32 -113q0 -53 28 -110q5 -10 23 -37q82 -114 274 -127q21 -2 41 -2q32 0 61 4q47 7 103 34t106 76t107 134.5t112 204.5l336 708h52l215 283h-732l160 -283h49l-231 -542l-238 542h47l160 283h-756z" />
<glyph unicode="z" horiz-adv-x="1202" d="M20 0h1160h2l-217 287h-418l606 737h-332h-774h-2l6 -6l213 -277h367z" />
<glyph unicode="{" horiz-adv-x="3809" d="M66 1438l213 -295h129l499 -1139h17h266h14l361 864l-322 2l-188 -514l-324 787h103l153 295h-921zM1137 1434l2578 -2l-246 -293h-596v-273h408v-270h-408v-303h133l246 -293h-1057l244 293h131v846l-561 2v-1374h148l235 -295h-1055l232 295h147v1374h-426zM1337 1942 h1059l-223 -297h-631zM1565 868v1v-1zM1565 869z" />
<glyph unicode="|" horiz-adv-x="395" d="M61 -121v1659h273v-1659h-273z" />
<glyph unicode="~" horiz-adv-x="1183" />
<glyph unicode="&#xa1;" horiz-adv-x="471" d="M61 -403h347l-35 964h-262zM82 889q0 66 48.5 112t117.5 46q66 0 114 -49t48 -115q-1 -68 -50 -116t-116 -48q-69 0 -116.5 50.5t-45.5 119.5z" />
<glyph unicode="&#xa3;" horiz-adv-x="1452" d="M61 0h1086l244 291h-664v307h127l170 225h-297v35q0 130 36.5 225.5t115.5 118.5q167 50 266 -96l112 276q-100 57 -217 70.5t-239 -20.5q-167 -51 -273 -200.5t-106 -359.5v-49h-127l-170 -225h297v-307h-119z" />
<glyph unicode="&#xa5;" horiz-adv-x="2074" d="M61 1430l246 -293h135l297 -389h-67l-127 -144h342v-82h-215l-127 -143h342v-84h-127l-248 -293h1059l-248 293h-129v84h213l123 143h-336v82h213l123 144h-195l271 389h159l248 293h-934l121 -293h123l-266 -389l-289 389h104l125 293h-936z" />
<glyph unicode="&#xa7;" horiz-adv-x="1476" d="M61 174q20 -55 27.5 -122t3.5 -123.5t-10.5 -105t-13.5 -76.5l-7 -28l226 129q1 3 4 10t5.5 13.5t4.5 11.5q225 -221 573 -221q78 0 147 10t118.5 27t91 38.5t69 45.5t48.5 48.5t32.5 46t19 38.5t9.5 27l2 10q2 6 4 18t2.5 47.5t-7 71t-31 84.5t-62.5 92q36 33 59.5 71.5 t29.5 60.5l5 22q1 5 3 13.5t3 36t-2 55t-16 67t-34.5 76t-62 78t-94.5 77t-135.5 69.5t-181.5 58q-126 30 -211.5 57t-130.5 49.5t-68.5 44t-24 41.5t2.5 42q8 36 62.5 61t134 28t163.5 -13t162 -68t119 -131l14 -39l225 106q-20 56 -27.5 118.5t-3.5 112.5t10.5 91.5 t13.5 64.5l7 23l-225 -125q-16 -34 -27 -86q-186 174 -487 174q-103 0 -187.5 -15.5t-137.5 -40.5t-93 -55t-60 -60t-31.5 -55t-14.5 -41l-2 -15q-2 -11 -3.5 -30t10.5 -73t42 -102q21 -35 72 -82q-32 -22 -56.5 -49t-36 -49t-18.5 -41t-8 -30l-2 -11q-2 -11 -3.5 -30 t10.5 -73t42 -102q4 -6 11.5 -17t37 -43t66.5 -60.5t102 -63.5t141 -60q128 -42 266.5 -78t198.5 -63q89 -44 76 -107q-9 -36 -45.5 -62t-91 -36t-119.5 -7.5t-134.5 26.5t-133.5 61.5t-120.5 101.5t-90.5 144zM456.5 675q-0.5 20 2.5 42q6 28 43 49q119 -40 252 -75 t192 -62q89 -44 76 -105q-12 -39 -47 -63q-18 5 -84 22q-126 30 -211.5 57t-130.5 49.5t-68.5 44t-24 41.5z" />
<glyph unicode="&#xa8;" horiz-adv-x="811" d="M61 1321q0 60 40.5 100.5t97.5 40.5q59 0 100 -40.5t41 -100.5q0 -56 -41.5 -96.5t-99.5 -40.5q-57 0 -97.5 40.5t-40.5 96.5zM471 1321q0 60 40 100.5t97 40.5q59 0 100.5 -40.5t41.5 -100.5q0 -56 -42 -96.5t-100 -40.5q-57 0 -97 40.5t-40 96.5z" />
<glyph unicode="&#xa9;" horiz-adv-x="1552" d="M43 715q0 -200 98 -369t267 -267.5t370 -98.5q200 0 369 98.5t267.5 267.5t98.5 369t-98.5 369t-267.5 267.5t-369 98.5q-201 0 -370 -98.5t-267 -267.5t-98 -369zM213 715q0 154 75.5 284t205.5 205.5t284 75.5q153 0 283 -75.5t206 -205.5t76 -284q0 -153 -76 -284 t-206 -207.5t-283 -76.5q-154 0 -284 76.5t-205.5 207.5t-75.5 284zM403 715q0 -164 116.5 -267.5t279.5 -103.5q82 0 157.5 32.5t128.5 88.5l-127 156h-2q-37 -113 -157 -113q-86 0 -132 55.5t-46 151.5t46 150.5t132 54.5q122 0 159 -113l127 156q-53 57 -128 89.5 t-158 32.5q-162 0 -279 -105.5t-117 -264.5z" />
<glyph unicode="&#xab;" horiz-adv-x="1198" d="M61 459l392 -463h190l-272 526l272 502h-190l-392 -467v-98zM555 459l391 -463h191l-273 526l273 502h-191l-391 -467v-98z" />
<glyph unicode="&#xad;" horiz-adv-x="708" d="M53 440h598v248h-598v-248z" />
<glyph unicode="&#xae;" horiz-adv-x="1556" d="M39 715q0 -200 98 -369t267 -267.5t370 -98.5q200 0 369 98.5t267.5 267.5t98.5 369t-98.5 369t-267.5 267.5t-369 98.5q-201 0 -370 -98.5t-267 -267.5t-98 -369zM209 715q0 154 75.5 284t205.5 205.5t284 75.5q153 0 283 -75.5t206 -205.5t76 -284q0 -153 -76 -284 t-206 -207.5t-283 -76.5q-154 0 -284 76.5t-205.5 207.5t-75.5 284zM352 410h400l-66 127h-41v131h170h4l84 -131h-49l-63 -127h423l-102 127h-57l-103 159q103 47 103 156q0 81 -70 131q-26 20 -74 30.5t-83 10.5h-35h-441l105 -127h57v-360h-59zM645 770v127h129 q56 0 76 -2q22 -2 38.5 -19t16.5 -40q0 -27 -18 -45.5t-43 -20.5h-41h-158z" />
<glyph unicode="&#xb0;" horiz-adv-x="737" d="M61 1272q0 58 25 119q23 53 66 96q45 45 98 65q58 25 119 25q60 0 118 -25q55 -21 99 -65q41 -41 65 -96q25 -61 25 -119q0 -60 -25 -121q-24 -51 -65 -96q-46 -46 -99 -66q-56 -24 -118 -24q-63 0 -119 24q-51 19 -98 66q-43 47 -66 96q-25 61 -25 121zM246 1272 q0 -52 36 -88.5t87 -36.5t87 36.5t36 88.5q0 51 -36 87t-87 36t-87 -36t-36 -87z" />
<glyph unicode="&#xb1;" horiz-adv-x="3850" />
<glyph unicode="&#xb4;" horiz-adv-x="614" d="M61 1176h250l242 251l-21 37h-299z" />
<glyph unicode="&#xb7;" horiz-adv-x="450" d="M61 516q0 69 48 117.5t114 48.5q69 0 117.5 -48.5t48.5 -117.5q0 -66 -48.5 -114t-117.5 -48q-66 0 -114 48t-48 114z" />
<glyph unicode="&#xb8;" horiz-adv-x="571" d="M61 -311q0 -3 1 -10.5t1 -10.5q9 -48 54 -80t116 -39q18 -2 64 -2q34 2 67 11t68 27.5t56.5 55t21.5 85.5q0 4 -0.5 10t-3.5 24t-8.5 34.5t-17.5 36.5t-28 34.5t-42.5 25t-59.5 11.5v102h-137v-166h51q27 0 47.5 -9.5t30.5 -23t15.5 -27t6.5 -22.5l1 -10q2 -33 -17 -60.5 t-51 -31.5q-10 -2 -29 -2q-31 0 -50 17.5t-19 39.5q0 30 26 33h6q3 0 7 -1l4 -1l6 6q-15 43 -88 43q-40 0 -69.5 -29t-29.5 -71z" />
<glyph unicode="&#xbb;" horiz-adv-x="1198" d="M61 0l273 526l-273 502h191l391 -467v-98l-391 -463h-191zM555 0l272 526l-272 502h190l392 -467v-98l-392 -463h-190z" />
<glyph unicode="&#xbf;" horiz-adv-x="1050" d="M61 -39q0 7 0.5 18t7.5 45t18 66.5t36 75t58.5 77t88.5 66t123 49.5l31 265h250l26 -334q-22 -7 -36 -13q-80 -20 -139.5 -54t-88 -68.5t-45.5 -66t-19 -51.5l-3 -20q-9 -87 25 -142.5t110 -68.5q20 -4 57 -4q63 3 102.5 41.5t36.5 81.5q-3 60 -59 60q-19 0 -31 -4 l-12 14q10 36 53.5 64t116.5 32q82 5 149.5 -47.5t71.5 -136.5q0 -27 -2 -41q-14 -99 -104 -171.5t-230 -90.5q-79 -9 -125 -9q-64 -1 -126.5 9t-125 37t-109.5 68t-76.5 106t-29.5 147zM387 911q0 66 48.5 114t117.5 48q66 0 114 -48t48 -114q0 -69 -48 -117.5t-114 -48.5 q-69 0 -117.5 48.5t-48.5 117.5z" />
<glyph unicode="&#xc0;" horiz-adv-x="2125" d="M61 0h967l-154 289h-153l88 174h475l92 -174h-125l-143 -289h956l-239 289h-133l-430 844h122l234 297h-1110l242 -297h114l-434 -844h-121zM748 1776l20 34h299l172 -286h-250zM909 668l140 266l135 -266h-275z" />
<glyph unicode="&#xc1;" horiz-adv-x="2125" d="M61 0h967l-154 289h-153l88 174h475l92 -174h-125l-143 -289h956l-239 289h-133l-430 844h122l234 297h-1110l242 -297h114l-434 -844h-121zM872 1524h250l242 252l-21 36h-299zM909 668l140 266l135 -266h-275z" />
<glyph unicode="&#xc2;" horiz-adv-x="2125" d="M61 0h967l-154 289h-153l88 174h475l92 -174h-125l-143 -289h956l-239 289h-133l-430 844h122l234 297h-1110l242 -297h114l-434 -844h-121zM715 1520h219l135 135l131 -135h221l-174 292h-53h-252h-53zM909 668l140 266l135 -266h-275z" />
<glyph unicode="&#xc4;" horiz-adv-x="2125" d="M61 0h967l-154 289h-153l88 174h475l92 -174h-125l-143 -289h956l-239 289h-133l-430 844h122l234 297h-1110l242 -297h114l-434 -844h-121zM723 1669q0 60 40 100.5t97 40.5q59 0 100 -40.5t41 -100.5q0 -56 -41.5 -96.5t-99.5 -40.5q-57 0 -97 40.5t-40 96.5zM909 668 l140 266l135 -266h-275zM1133 1669q0 60 40 100.5t97 40.5q59 0 100 -40.5t41 -100.5q0 -56 -41.5 -96.5t-99.5 -40.5q-57 0 -97 40.5t-40 96.5z" />
<glyph unicode="&#xc6;" horiz-adv-x="2459" d="M61 6h918l-152 291h-90l113 178h412v-178h-88l-152 -291h1130l242 291h-840v301h478v272h-478v271h603l241 293h-1798l240 -293h121l-529 -844h-129zM979 684l283 444v-444h-283z" />
<glyph unicode="&#xc7;" horiz-adv-x="1572" d="M61 743q0 -155 55 -294.5t154 -245t248 -168t326 -62.5q249 0 410 133.5t257 382.5l-272 115q-29 -73 -62 -129t-81.5 -106t-116 -76.5t-150.5 -26.5q-122 0 -221 67t-154 182t-55 253q0 177 120 296.5t312 119.5q131 0 243 -90t159 -234l18 -41l260 117 q-24 61 -33 138.5t-4.5 144t12.5 124.5t16 91l9 34l-260 -174q-9 -15 -18 -39q-148 187 -424 203q-130 5 -248.5 -31.5t-208 -104.5t-156 -159t-101 -199t-34.5 -221zM547 -311q0 -3 1 -10.5t1 -10.5q9 -48 54 -80t116 -39q18 -2 63 -2q34 2 67 11t68 27.5t56.5 55 t21.5 85.5q0 7 -1 18.5t-9.5 41.5t-23 53t-47.5 42.5t-78 20.5v102h-138v-166h52q27 0 47.5 -9.5t30 -23t15 -27t6.5 -22.5l1 -10q2 -33 -17 -60.5t-51 -31.5q-10 -2 -28 -2q-31 0 -50.5 17.5t-19.5 39.5q0 30 27 33h6q3 0 6 -1t4 -1l6 6q-15 43 -88 43q-40 0 -69 -29 t-29 -71z" />
<glyph unicode="&#xc8;" horiz-adv-x="1705" d="M61 0h1328l249 293h-864v299h486v270h-486v273h615l256 292h-1584l258 -292h136v-842h-136zM573 1776l21 34h299l172 -286h-250z" />
<glyph unicode="&#xc9;" horiz-adv-x="1705" d="M61 0h1328l249 293h-864v299h486v270h-486v273h615l256 292h-1584l258 -292h136v-842h-136zM676 1524h250l241 252l-20 36h-299z" />
<glyph unicode="&#xca;" horiz-adv-x="1705" d="M61 0h1328l249 293h-864v299h486v270h-486v273h615l256 292h-1584l258 -292h136v-842h-136zM532 1520h220l135 135l131 -135h221l-174 292h-53h-252h-53z" />
<glyph unicode="&#xcb;" horiz-adv-x="1705" d="M61 0h1328l249 293h-864v299h486v270h-486v273h615l256 292h-1584l258 -292h136v-842h-136zM532 1669q0 60 40.5 100.5t97.5 40.5q59 0 100 -40.5t41 -100.5q0 -56 -41.5 -96.5t-99.5 -40.5q-57 0 -97.5 40.5t-40.5 96.5zM942 1669q0 60 40 100.5t97 40.5 q59 0 100.5 -40.5t41.5 -100.5q0 -56 -42 -96.5t-100 -40.5q-57 0 -97 40.5t-40 96.5z" />
<glyph unicode="&#xcc;" horiz-adv-x="1181" d="M61 0h1059l-243 293h-134v846h134l243 293h-1059l246 -293h131v-846h-131zM266 1776l21 34h299l172 -286h-250z" />
<glyph unicode="&#xcd;" horiz-adv-x="1181" d="M61 0h1059l-243 293h-134v846h134l243 293h-1059l246 -293h131v-846h-131zM389 1524h250l242 252l-21 36h-299z" />
<glyph unicode="&#xce;" horiz-adv-x="1181" d="M61 0h1059l-243 293h-134v846h134l243 293h-1059l246 -293h131v-846h-131zM238 1520h219l135 135l131 -135h221l-174 292h-53h-252h-53z" />
<glyph unicode="&#xcf;" horiz-adv-x="1181" d="M61 0h1059l-243 293h-134v846h134l243 293h-1059l246 -293h131v-846h-131zM248 1669q0 60 40 100.5t97 40.5q59 0 100 -40.5t41 -100.5q0 -56 -41.5 -96.5t-99.5 -40.5q-57 0 -97 40.5t-40 96.5zM657 1669q0 60 40.5 100.5t97.5 40.5q59 0 100 -40.5t41 -100.5 q0 -56 -41.5 -96.5t-99.5 -40.5q-57 0 -97.5 40.5t-40.5 96.5z" />
<glyph unicode="&#xd2;" horiz-adv-x="1574" d="M20 719q0 -152 61 -290.5t164 -238.5t245.5 -159.5t297.5 -59.5q208 0 384.5 100.5t279 272.5t102.5 375q0 152 -60.5 289.5t-163 237t-244.5 158t-298 58.5q-208 0 -384.5 -99t-280 -270.5t-103.5 -373.5zM367 719q0 186 123.5 319t297.5 133q176 0 300 -132.5 t124 -319.5q0 -191 -123.5 -324t-300.5 -133q-175 0 -298 133.5t-123 323.5zM498 1776l20 34h299l172 -286h-250z" />
<glyph unicode="&#xd3;" horiz-adv-x="1574" d="M20 719q0 -152 61 -290.5t164 -238.5t245.5 -159.5t297.5 -59.5q208 0 384.5 100.5t279 272.5t102.5 375q0 152 -60.5 289.5t-163 237t-244.5 158t-298 58.5q-208 0 -384.5 -99t-280 -270.5t-103.5 -373.5zM367 719q0 186 123.5 319t297.5 133q176 0 300 -132.5 t124 -319.5q0 -191 -123.5 -324t-300.5 -133q-175 0 -298 133.5t-123 323.5zM590 1524h250l241 252l-20 36h-299z" />
<glyph unicode="&#xd4;" horiz-adv-x="1574" d="M20 719q0 -152 61 -290.5t164 -238.5t245.5 -159.5t297.5 -59.5q208 0 384.5 100.5t279 272.5t102.5 375q0 152 -60.5 289.5t-163 237t-244.5 158t-298 58.5q-208 0 -384.5 -99t-280 -270.5t-103.5 -373.5zM367 719q0 186 123.5 319t297.5 133q176 0 300 -132.5 t124 -319.5q0 -191 -123.5 -324t-300.5 -133q-175 0 -298 133.5t-123 323.5zM438 1520h219l136 135l131 -135h221l-174 292h-53h-252h-54z" />
<glyph unicode="&#xd6;" horiz-adv-x="1574" d="M20 719q0 -152 61 -290.5t164 -238.5t245.5 -159.5t297.5 -59.5q208 0 384.5 100.5t279 272.5t102.5 375q0 152 -60.5 289.5t-163 237t-244.5 158t-298 58.5q-208 0 -384.5 -99t-280 -270.5t-103.5 -373.5zM367 719q0 186 123.5 319t297.5 133q176 0 300 -132.5 t124 -319.5q0 -191 -123.5 -324t-300.5 -133q-175 0 -298 133.5t-123 323.5zM449 1669q0 60 40 100.5t97 40.5q59 0 100 -40.5t41 -100.5q0 -56 -41.5 -96.5t-99.5 -40.5q-57 0 -97 40.5t-40 96.5zM858 1669q0 60 40 100.5t97 40.5q59 0 100.5 -40.5t41.5 -100.5 q0 -56 -42 -96.5t-100 -40.5q-57 0 -97 40.5t-40 96.5z" />
<glyph unicode="&#xd9;" horiz-adv-x="2103" d="M61 1434l244 -295h137v-586q0 -15 1.5 -41.5t17.5 -98.5t45 -134q152 -293 541 -293q102 0 187.5 19.5t145 52t107 75t76 90t49.5 94.5t29.5 89.5t13 75t4.5 52.5v19v586h139l244 295h-950l153 -295h107v-432q1 -7 1.5 -19t-0.5 -48t-5 -70t-16.5 -77t-31.5 -77 q-34 -63 -98.5 -100t-154.5 -37q-92 0 -172.5 48t-98.5 117q-14 38 -19.5 96t-4.5 97l2 39v463h104l154 295h-951zM750 1776l20 34h299l172 -286h-250z" />
<glyph unicode="&#xda;" horiz-adv-x="2103" d="M61 1434l244 -295h137v-586q0 -15 1.5 -41.5t17.5 -98.5t45 -134q152 -293 541 -293q102 0 187.5 19.5t145 52t107 75t76 90t49.5 94.5t29.5 89.5t13 75t4.5 52.5v19v586h139l244 295h-950l153 -295h107v-432q1 -7 1.5 -19t-0.5 -48t-5 -70t-16.5 -77t-31.5 -77 q-34 -63 -98.5 -100t-154.5 -37q-92 0 -172.5 48t-98.5 117q-14 38 -19.5 96t-4.5 97l2 39v463h104l154 295h-951zM858 1524h250l242 252l-21 36h-299z" />
<glyph unicode="&#xdb;" horiz-adv-x="2103" d="M61 1434l244 -295h137v-586q0 -15 1.5 -41.5t17.5 -98.5t45 -134q152 -293 541 -293q102 0 187.5 19.5t145 52t107 75t76 90t49.5 94.5t29.5 89.5t13 75t4.5 52.5v19v586h139l244 295h-950l153 -295h107v-432q1 -7 1.5 -19t-0.5 -48t-5 -70t-16.5 -77t-31.5 -77 q-34 -63 -98.5 -100t-154.5 -37q-92 0 -172.5 48t-98.5 117q-14 38 -19.5 96t-4.5 97l2 39v463h104l154 295h-951zM698 1520h220l135 135l131 -135h221l-174 292h-53h-252h-54z" />
<glyph unicode="&#xdc;" horiz-adv-x="2103" d="M61 1434l244 -295h137v-586q0 -15 1.5 -41.5t17.5 -98.5t45 -134q152 -293 541 -293q102 0 187.5 19.5t145 52t107 75t76 90t49.5 94.5t29.5 89.5t13 75t4.5 52.5v19v586h139l244 295h-950l153 -295h107v-432q1 -7 1.5 -19t-0.5 -48t-5 -70t-16.5 -77t-31.5 -77 q-34 -63 -98.5 -100t-154.5 -37q-92 0 -172.5 48t-98.5 117q-14 38 -19.5 96t-4.5 97l2 39v463h104l154 295h-951zM709 1669q0 60 40 100.5t97 40.5q59 0 100 -40.5t41 -100.5q0 -56 -41.5 -96.5t-99.5 -40.5q-57 0 -97 40.5t-40 96.5zM1118 1669q0 60 40 100.5t97 40.5 q59 0 100.5 -40.5t41.5 -100.5q0 -56 -42 -96.5t-100 -40.5q-57 0 -97 40.5t-40 96.5z" />
<glyph unicode="&#xdd;" horiz-adv-x="2078" d="M61 1434l244 -293h135l451 -535v-313h-131l-246 -293h1061l-246 293h-133v311l416 537h164l241 293h-936l121 -293h127l-268 -332l-291 332h107l122 293h-938zM852 1524h250l241 252l-20 36h-299z" />
<glyph unicode="&#xe0;" d="M62 240q0 -71 33 -126t88 -87t119 -48t133 -16q61 0 114 14.5t86 35.5t57 41.5t34 35.5l10 14q54 -99 160.5 -128.5t224.5 30.5q48 27 75 64.5t30.5 74.5t-2 67.5t-17.5 55.5q-6 11 -10 19l-16 18l-19 -2q-4 -29 -20 -37q-13 -19 -41 -22t-52 20t-24 70l6 295 q2 81 -13.5 146.5t-41 109t-63.5 76.5t-76 51.5t-84.5 29.5t-83 14t-76.5 3q-67 0 -129 -8q-143 -19 -232 -78t-108 -148q-4 -20 -4 -39q0 -85 58.5 -131.5t143.5 -46.5q75 0 120 25.5t57 62.5l-13 15q-12 -6 -20 -6h-10q-58 9 -58 63q0 40 41.5 82.5t100.5 42.5q37 0 49 -2 q133 -19 133 -246v-8q-247 -56 -348 -92q-272 -96 -307 -254q-5 -25 -5 -51zM320 1427l21 35h299l172 -286h-250zM417 287q0 63 94 123t209 92v-162q-1 -7 -3 -17.5t-13.5 -38.5t-28 -50t-49.5 -41t-76 -21q-57 -3 -95 33t-38 82z" />
<glyph unicode="&#xe1;" d="M62 240q0 -71 33 -126t88 -87t119 -48t133 -16q61 0 114 14.5t86 35.5t57 41.5t34 35.5l10 14q54 -99 160.5 -128.5t224.5 30.5q48 27 75 64.5t30.5 74.5t-2 67.5t-17.5 55.5q-6 11 -10 19l-16 18l-19 -2q-4 -29 -20 -37q-13 -19 -41 -22t-52 20t-24 70l6 295 q2 81 -13.5 146.5t-41 109t-63.5 76.5t-76 51.5t-84.5 29.5t-83 14t-76.5 3q-67 0 -129 -8q-143 -19 -232 -78t-108 -148q-4 -20 -4 -39q0 -85 58.5 -131.5t143.5 -46.5q75 0 120 25.5t57 62.5l-13 15q-12 -6 -20 -6h-10q-58 9 -58 63q0 40 41.5 82.5t100.5 42.5q37 0 49 -2 q133 -19 133 -246v-8q-247 -56 -348 -92q-272 -96 -307 -254q-5 -25 -5 -51zM402 1176h250l242 251l-21 37h-299zM417 287q0 63 94 123t209 92v-162q-1 -7 -3 -17.5t-13.5 -38.5t-28 -50t-49.5 -41t-76 -21q-57 -3 -95 33t-38 82z" />
<glyph unicode="&#xe2;" d="M62 240q0 -71 33 -126t88 -87t119 -48t133 -16q61 0 114 14.5t86 35.5t57 41.5t34 35.5l10 14q54 -99 160.5 -128.5t224.5 30.5q48 27 75 64.5t30.5 74.5t-2 67.5t-17.5 55.5q-6 11 -10 19l-16 18l-19 -2q-4 -29 -20 -37q-13 -19 -41 -22t-52 20t-24 70l6 295 q2 81 -13.5 146.5t-41 109t-63.5 76.5t-76 51.5t-84.5 29.5t-83 14t-76.5 3q-67 0 -129 -8q-143 -19 -232 -78t-108 -148q-4 -20 -4 -39q0 -85 58.5 -131.5t143.5 -46.5q75 0 120 25.5t57 62.5l-13 15q-12 -6 -20 -6h-10q-58 9 -58 63q0 40 41.5 82.5t100.5 42.5q37 0 49 -2 q133 -19 133 -246v-8q-247 -56 -348 -92q-272 -96 -307 -254q-5 -25 -5 -51zM238 1171h220l135 136l131 -136h221l-174 293h-53h-252h-53zM417 287q0 63 94 123t209 92v-162q-1 -7 -3 -17.5t-13.5 -38.5t-28 -50t-49.5 -41t-76 -21q-57 -3 -95 33t-38 82z" />
<glyph unicode="&#xe4;" d="M62 240q0 -71 33 -126t88 -87t119 -48t133 -16q61 0 114 14.5t86 35.5t57 41.5t34 35.5l10 14q54 -99 160.5 -128.5t224.5 30.5q48 27 75 64.5t30.5 74.5t-2 67.5t-17.5 55.5q-6 11 -10 19l-16 18l-19 -2q-4 -29 -20 -37q-13 -19 -41 -22t-52 20t-24 70l6 295 q2 81 -13.5 146.5t-41 109t-63.5 76.5t-76 51.5t-84.5 29.5t-83 14t-76.5 3q-67 0 -129 -8q-143 -19 -232 -78t-108 -148q-4 -20 -4 -39q0 -85 58.5 -131.5t143.5 -46.5q75 0 120 25.5t57 62.5l-13 15q-12 -6 -20 -6h-10q-58 9 -58 63q0 40 41.5 82.5t100.5 42.5q37 0 49 -2 q133 -19 133 -246v-8q-247 -56 -348 -92q-272 -96 -307 -254q-5 -25 -5 -51zM238 1321q0 60 40.5 100.5t97.5 40.5q59 0 100 -40.5t41 -100.5q0 -56 -41.5 -96.5t-99.5 -40.5q-57 0 -97.5 40.5t-40.5 96.5zM417 287q0 63 94 123t209 92v-162q-1 -7 -3 -17.5t-13.5 -38.5 t-28 -50t-49.5 -41t-76 -21q-57 -3 -95 33t-38 82zM648 1321q0 60 40 100.5t97 40.5q59 0 100.5 -40.5t41.5 -100.5q0 -56 -42 -96.5t-100 -40.5q-57 0 -97 40.5t-40 96.5z" />
<glyph unicode="&#xe6;" horiz-adv-x="1781" d="M61 256q0 -69 32.5 -123.5t85.5 -86.5t115 -48t128 -16q290 0 403 174q159 -183 402 -183q296 0 456 181l-176 208q-31 -73 -101 -115t-165 -42q-113 0 -184.5 66t-79.5 175h743v70q0 149 -64 271.5t-183 195t-269 72.5q-181 0 -330 -107q-95 105 -294 109q-80 0 -129 -8 q-134 -13 -222.5 -73.5t-109.5 -148.5q-2 -12 -2 -43q0 -83 57 -127.5t143 -44.5q70 0 113 24.5t57 59.5l-10 15q-16 -4 -22 -4h-13q-53 6 -53 63q0 35 37.5 59.5t99.5 24.5q40 0 58 -4q68 -8 96 -61t25 -132v-36q-120 0 -233 -23t-206 -66.5t-149 -115t-56 -160.5zM399 301 q0 72 91 123.5t215 42.5v-113q-2 -5 -5 -14t-17 -32.5t-32 -41.5t-50.5 -33.5t-70.5 -17.5q-59 -3 -95 21.5t-36 64.5zM981 621q44 198 219 198q163 0 203 -198h-422z" />
<glyph unicode="&#xe7;" horiz-adv-x="1085" d="M61 514q0 -160 81 -286t212.5 -192.5t286.5 -66.5q123 0 233.5 48.5t186.5 132.5l-184 225q-30 -86 -90.5 -145.5t-145.5 -59.5q-122 0 -190 98.5t-68 245.5q0 93 28.5 170t88 125.5t141.5 48.5q88 0 148 -61t88 -150l188 232q-79 84 -190 131t-234 47q-115 0 -221 -40.5 t-185 -111.5t-126.5 -173t-47.5 -218zM354 -311q0 -3 1 -10.5t1 -10.5q9 -48 54 -80t116 -39q18 -2 64 -2q34 2 67 11t68 27.5t56.5 55t21.5 85.5q0 4 -0.5 10t-3.5 24t-8.5 34.5t-17.5 36.5t-28 34.5t-42.5 25t-59.5 11.5v102h-137v-166h51q27 0 47.5 -9.5t30 -23t15 -27 t6.5 -22.5l1 -10q2 -33 -16.5 -60.5t-50.5 -31.5q-10 -2 -29 -2q-31 0 -50 17.5t-19 39.5q0 30 26 33h6q4 0 7 -1t4 -1l6 6q-15 43 -88 43q-40 0 -69.5 -29t-29.5 -71z" />
<glyph unicode="&#xe8;" horiz-adv-x="1183" d="M61 514q0 -148 77 -274t208 -199.5t283 -73.5q303 0 465 180l-179 215q-32 -83 -104.5 -142.5t-165.5 -59.5q-108 0 -183.5 85.5t-84.5 200.5h756v68q0 151 -64.5 275.5t-185 198t-273.5 73.5t-279 -73t-198 -198.5t-72 -275.5zM328 1427l20 35h299l172 -286h-250z M385 631q19 99 75 165t148 66q82 0 133 -66t70 -165h-426z" />
<glyph unicode="&#xe9;" horiz-adv-x="1183" d="M61 514q0 -148 77 -274t208 -199.5t283 -73.5q303 0 465 180l-179 215q-32 -83 -104.5 -142.5t-165.5 -59.5q-108 0 -183.5 85.5t-84.5 200.5h756v68q0 151 -64.5 275.5t-185 198t-273.5 73.5t-279 -73t-198 -198.5t-72 -275.5zM385 631q19 99 75 165t148 66 q82 0 133 -66t70 -165h-426zM410 1176h249l242 251l-20 37h-299z" />
<glyph unicode="&#xea;" horiz-adv-x="1183" d="M61 514q0 -148 77 -274t208 -199.5t283 -73.5q303 0 465 180l-179 215q-32 -83 -104.5 -142.5t-165.5 -59.5q-108 0 -183.5 85.5t-84.5 200.5h756v68q0 151 -64.5 275.5t-185 198t-273.5 73.5t-279 -73t-198 -198.5t-72 -275.5zM256 1171h219l135 136l131 -136h222 l-175 293h-53h-252h-53zM385 631q19 99 75 165t148 66q82 0 133 -66t70 -165h-426z" />
<glyph unicode="&#xeb;" horiz-adv-x="1183" d="M61 514q0 -148 77 -274t208 -199.5t283 -73.5q303 0 465 180l-179 215q-32 -83 -104.5 -142.5t-165.5 -59.5q-108 0 -183.5 85.5t-84.5 200.5h756v68q0 151 -64.5 275.5t-185 198t-273.5 73.5t-279 -73t-198 -198.5t-72 -275.5zM256 1321q0 60 40 100.5t97 40.5 q59 0 100.5 -40.5t41.5 -100.5q0 -56 -42 -96.5t-100 -40.5q-57 0 -97 40.5t-40 96.5zM385 631q19 99 75 165t148 66q82 0 133 -66t70 -165h-426zM666 1321q0 60 40 100.5t97 40.5q59 0 100 -40.5t41 -100.5q0 -56 -41.5 -96.5t-99.5 -40.5q-57 0 -97 40.5t-40 96.5z" />
<glyph unicode="&#xec;" horiz-adv-x="974" d="M61 0h852l-219 285h-65v741h-568l240 -307h45v-434h-45zM164 1427l20 35h299l172 -286h-249z" />
<glyph unicode="&#xed;" horiz-adv-x="974" d="M61 0h852l-219 285h-65v741h-568l240 -307h45v-434h-45zM250 1176h250l241 251l-20 37h-299z" />
<glyph unicode="&#xee;" horiz-adv-x="974" d="M61 0h852l-219 285h-65v741h-568l240 -307h45v-434h-45zM102 1171h220l135 136l131 -136h221l-174 293h-53h-252h-54z" />
<glyph unicode="&#xef;" horiz-adv-x="974" d="M61 0h852l-219 285h-65v741h-568l240 -307h45v-434h-45zM102 1321q0 60 40.5 100.5t97.5 40.5q59 0 100 -40.5t41 -100.5q0 -56 -41.5 -96.5t-99.5 -40.5q-57 0 -97.5 40.5t-40.5 96.5zM512 1321q0 60 40 100.5t97 40.5q59 0 100.5 -40.5t41.5 -100.5q0 -56 -42 -96.5 t-100 -40.5q-57 0 -97 40.5t-40 96.5z" />
<glyph unicode="&#xf2;" horiz-adv-x="1249" d="M61 514q0 -148 76 -273.5t206 -198.5t282 -73t281.5 73t205.5 198.5t76 273.5q0 147 -76 272t-205.5 198t-281.5 73t-282 -73t-206 -198t-76 -272zM328 1427l20 35h299l172 -286h-250zM375 514q0 146 64.5 244t185.5 98q83 0 141 -48.5t84.5 -124t26.5 -169.5 q0 -95 -26.5 -171t-84.5 -124.5t-141 -48.5q-121 0 -185.5 98.5t-64.5 245.5z" />
<glyph unicode="&#xf3;" horiz-adv-x="1249" d="M61 514q0 -148 76 -273.5t206 -198.5t282 -73t281.5 73t205.5 198.5t76 273.5q0 147 -76 272t-205.5 198t-281.5 73t-282 -73t-206 -198t-76 -272zM375 514q0 146 64.5 244t185.5 98q83 0 141 -48.5t84.5 -124t26.5 -169.5q0 -95 -26.5 -171t-84.5 -124.5t-141 -48.5 q-121 0 -185.5 98.5t-64.5 245.5zM420 1176h250l241 251l-20 37h-299z" />
<glyph unicode="&#xf4;" horiz-adv-x="1249" d="M61 514q0 -148 76 -273.5t206 -198.5t282 -73t281.5 73t205.5 198.5t76 273.5q0 147 -76 272t-205.5 198t-281.5 73t-282 -73t-206 -198t-76 -272zM276 1171h220l135 136l131 -136h221l-174 293h-53h-252h-53zM375 514q0 146 64.5 244t185.5 98q83 0 141 -48.5t84.5 -124 t26.5 -169.5q0 -95 -26.5 -171t-84.5 -124.5t-141 -48.5q-121 0 -185.5 98.5t-64.5 245.5z" />
<glyph unicode="&#xf6;" horiz-adv-x="1249" d="M61 514q0 -148 76 -273.5t206 -198.5t282 -73t281.5 73t205.5 198.5t76 273.5q0 147 -76 272t-205.5 198t-281.5 73t-282 -73t-206 -198t-76 -272zM276 1321q0 60 40.5 100.5t97.5 40.5q59 0 100 -40.5t41 -100.5q0 -56 -41.5 -96.5t-99.5 -40.5q-57 0 -97.5 40.5 t-40.5 96.5zM375 514q0 146 64.5 244t185.5 98q83 0 141 -48.5t84.5 -124t26.5 -169.5q0 -95 -26.5 -171t-84.5 -124.5t-141 -48.5q-121 0 -185.5 98.5t-64.5 245.5zM686 1321q0 60 40 100.5t97 40.5q59 0 100.5 -40.5t41.5 -100.5q0 -56 -42 -96.5t-100 -40.5 q-57 0 -97 40.5t-40 96.5z" />
<glyph unicode="&#xf7;" horiz-adv-x="1048" d="M61 436h926v248h-926v-248zM348 145q0 69 48 117.5t114 48.5q69 0 117.5 -48.5t48.5 -117.5q0 -66 -48.5 -113.5t-117.5 -47.5q-66 0 -114 47.5t-48 113.5zM348 969q0 69 48 117.5t114 48.5q69 0 117.5 -48.5t48.5 -117.5q0 -66 -48.5 -114t-117.5 -48q-66 0 -114 48 t-48 114z" />
<glyph unicode="&#xf9;" horiz-adv-x="1597" d="M20 1024l220 -287h51v-207q0 -99 17 -183.5t56 -158.5t98 -123t149.5 -70.5t203.5 -6.5q69 9 128 66t71 122v-176h563l-219 293h-58v731h-552l215 -287h51v-182q0 -346 -207 -346q-51 0 -90.5 18.5t-62.5 48t-39.5 65t-22.5 71t-8.5 65t-1.5 47.5v19v481h-562zM455 1427 l20 35h299l172 -286h-250z" />
<glyph unicode="&#xfa;" horiz-adv-x="1597" d="M20 1024l220 -287h51v-207q0 -99 17 -183.5t56 -158.5t98 -123t149.5 -70.5t203.5 -6.5q69 9 128 66t71 122v-176h563l-219 293h-58v731h-552l215 -287h51v-182q0 -346 -207 -346q-51 0 -90.5 18.5t-62.5 48t-39.5 65t-22.5 71t-8.5 65t-1.5 47.5v19v481h-562zM573 1176 h250l242 251l-21 37h-299z" />
<glyph unicode="&#xfb;" horiz-adv-x="1597" d="M20 1024l220 -287h51v-207q0 -99 17 -183.5t56 -158.5t98 -123t149.5 -70.5t203.5 -6.5q69 9 128 66t71 122v-176h563l-219 293h-58v731h-552l215 -287h51v-182q0 -346 -207 -346q-51 0 -90.5 18.5t-62.5 48t-39.5 65t-22.5 71t-8.5 65t-1.5 47.5v19v481h-562zM399 1171 h219l136 136l131 -136h221l-174 293h-53h-252h-54z" />
<glyph unicode="&#xfc;" horiz-adv-x="1597" d="M20 1024l220 -287h51v-207q0 -99 17 -183.5t56 -158.5t98 -123t149.5 -70.5t203.5 -6.5q69 9 128 66t71 122v-176h563l-219 293h-58v731h-552l215 -287h51v-182q0 -346 -207 -346q-51 0 -90.5 18.5t-62.5 48t-39.5 65t-22.5 71t-8.5 65t-1.5 47.5v19v481h-562zM399 1321 q0 60 40.5 100.5t97.5 40.5q59 0 100 -40.5t41 -100.5q0 -56 -41.5 -96.5t-99.5 -40.5q-57 0 -97.5 40.5t-40.5 96.5zM809 1321q0 60 40 100.5t97 40.5q59 0 100 -40.5t41 -100.5q0 -56 -41.5 -96.5t-99.5 -40.5q-57 0 -97 40.5t-40 96.5z" />
<glyph unicode="&#xfd;" horiz-adv-x="1581" d="M20 1024l216 -283h47l350 -714q0 -101 -39 -164q-60 -108 -152 -72q-26 8 -43 36t-10 58q8 38 39.5 55t79.5 3l10 14q-2 9 -8.5 20t-11.5 18l-6 7q-16 20 -43.5 37t-65 29t-85.5 6t-93 -33q-17 -11 -34.5 -29t-26.5 -30l-9 -13q-61 -106 -4 -223q5 -10 23 -37 q82 -114 274 -127q55 -4 102 2.5t103 33.5t106 76t107 134.5t112 204.5l336 708h52l215 283h-732l160 -283h49l-231 -542l-238 542h47l160 283h-756zM573 1176h250l242 251l-21 37h-299z" />
<glyph unicode="&#xfe;" horiz-adv-x="2048" />
<glyph unicode="&#xff;" horiz-adv-x="1581" d="M20 1024l216 -283h47l350 -714q0 -101 -39 -164q-60 -108 -152 -72q-26 8 -43 36t-10 58q8 38 39.5 55t79.5 3l10 14q-2 9 -8.5 20t-11.5 18l-6 7q-16 20 -43.5 37t-65 29t-85.5 6t-93 -33q-17 -11 -34.5 -29t-26.5 -30l-9 -13q-61 -106 -4 -223q5 -10 23 -37 q82 -114 274 -127q55 -4 102 2.5t103 33.5t106 76t107 134.5t112 204.5l336 708h52l215 283h-732l160 -283h49l-231 -542l-238 542h47l160 283h-756zM461 1321q0 60 40 100.5t97 40.5q59 0 100 -40.5t41 -100.5q0 -56 -41.5 -96.5t-99.5 -40.5q-57 0 -97 40.5t-40 96.5z M870 1321q0 60 40.5 100.5t97.5 40.5q59 0 100 -40.5t41 -100.5q0 -56 -41.5 -96.5t-99.5 -40.5q-57 0 -97.5 40.5t-40.5 96.5z" />
<glyph unicode="&#x152;" horiz-adv-x="2439" d="M61 721q0 -149 60 -284.5t161 -234.5t241 -157.5t294 -58.5q83 0 178 20h1135l242 295h-830v297h465v272h-465v271h594l242 293h-1374q-81 22 -187 22q-154 0 -294 -58t-241 -156t-161 -234.5t-60 -286.5zM399 721q0 187 123 317.5t295 130.5q175 0 296.5 -130.5 t121.5 -317.5q0 -186 -122 -317.5t-296 -131.5q-172 0 -295 131.5t-123 317.5z" />
<glyph unicode="&#x153;" horiz-adv-x="1955" d="M61 514q0 -147 75.5 -271.5t205 -197t281.5 -72.5q116 0 218.5 42.5t176.5 119.5q159 -162 381 -162q296 0 459 181l-175 211q-30 -74 -101.5 -118t-168.5 -44q-109 0 -182 68t-82 178h745v65q0 150 -64 273t-182.5 195.5t-269.5 72.5q-216 0 -374 -148 q-75 70 -173.5 109t-207.5 39q-152 0 -281.5 -72t-205 -196.5t-75.5 -272.5zM373 514q0 141 63 222t187 81t185.5 -80.5t61.5 -222.5t-61.5 -222.5t-185.5 -80.5t-187 81t-63 222zM1155 633q38 186 221 186q163 0 201 -186h-422z" />
<glyph unicode="&#x178;" horiz-adv-x="2078" d="M61 1434l244 -293h135l451 -535v-313h-131l-246 -293h1061l-246 293h-133v311l416 537h164l241 293h-936l121 -293h127l-268 -332l-291 332h107l122 293h-938zM698 1669q0 60 40.5 100.5t97.5 40.5q59 0 100 -40.5t41 -100.5q0 -56 -41.5 -96.5t-99.5 -40.5 q-57 0 -97.5 40.5t-40.5 96.5zM1108 1669q0 60 40 100.5t97 40.5q59 0 100 -40.5t41 -100.5q0 -56 -41.5 -96.5t-99.5 -40.5q-57 0 -97 40.5t-40 96.5z" />
<glyph unicode="&#x2c6;" horiz-adv-x="829" d="M61 1171h220l135 136l131 -136h221l-174 293h-53h-252h-53z" />
<glyph unicode="&#x2000;" horiz-adv-x="971" />
<glyph unicode="&#x2001;" horiz-adv-x="1942" />
<glyph unicode="&#x2002;" horiz-adv-x="971" />
<glyph unicode="&#x2003;" horiz-adv-x="1942" />
<glyph unicode="&#x2004;" horiz-adv-x="647" />
<glyph unicode="&#x2005;" horiz-adv-x="485" />
<glyph unicode="&#x2006;" horiz-adv-x="323" />
<glyph unicode="&#x2007;" horiz-adv-x="323" />
<glyph unicode="&#x2008;" horiz-adv-x="242" />
<glyph unicode="&#x2009;" horiz-adv-x="388" />
<glyph unicode="&#x200a;" horiz-adv-x="107" />
<glyph unicode="&#x2010;" horiz-adv-x="708" d="M53 440h598v248h-598v-248z" />
<glyph unicode="&#x2011;" horiz-adv-x="708" d="M53 440h598v248h-598v-248z" />
<glyph unicode="&#x2012;" horiz-adv-x="708" d="M53 440h598v248h-598v-248z" />
<glyph unicode="&#x2013;" horiz-adv-x="905" d="M61 440h783v248h-783v-248z" />
<glyph unicode="&#x2014;" horiz-adv-x="1765" d="M61 440h1643v248h-1643v-248z" />
<glyph unicode="&#x2018;" horiz-adv-x="452" d="M66 1051v1q-15 86 32 184q58 117 195 206l98 -45q-5 -4 -13 -11t-29 -27.5t-37.5 -41t-30.5 -47.5t-15 -51q62 -19 91 -74.5t10 -118.5q-19 -60 -76 -89.5t-119 -10.5q-42 12 -71.5 47t-34.5 78z" />
<glyph unicode="&#x2019;" horiz-adv-x="438" d="M61 971q5 4 13 11t28 28.5t35.5 42.5t28 48.5t12.5 51.5q-62 17 -92.5 71t-13.5 117q15 62 71 94t119 15q43 -11 74 -44.5t37 -76.5v-1q3 -14 5 -31t-4.5 -63.5t-25 -90.5t-66.5 -103t-120 -110z" />
<glyph unicode="&#x2022;" horiz-adv-x="839" d="M61 502q0 151 104.5 256.5t250.5 105.5q152 0 257 -105t105 -257q0 -146 -105.5 -250.5t-256.5 -104.5q-145 0 -250 105t-105 250z" />
<glyph unicode="&#x202f;" horiz-adv-x="388" />
<glyph unicode="&#x205f;" horiz-adv-x="485" />
<glyph unicode="&#x20ac;" horiz-adv-x="1239" d="M61 510h146q50 -244 204 -388.5t349 -144.5q122 0 231.5 47.5t186.5 129.5l-183 223q-30 -79 -82 -119.5t-145 -40.5q-95 0 -154.5 82t-87.5 211h295l62 162h-377v37v55h315l62 166h-353q76 293 238 293q93 0 146 -42.5t81 -123.5l183 227q-75 82 -184.5 128t-233.5 46 q-189 0 -341 -145.5t-206 -382.5h-88l-64 -166h129q-2 -16 -2 -55v-37h-63z" />
<glyph unicode="&#x25fc;" horiz-adv-x="1024" d="M0 0v1024h1024v-1024h-1024z" />
</font>
</defs>
</svg>
